<?xml version="1.0" encoding="iso-8859-1"?>
<!-- Generator: Adobe Illustrator 19.0.0, SVG Export Plug-In . SVG Version: 6.00 Build 0)  -->
<svg version="1.1" id="Capa_1" xmlns="http://www.w3.org/2000/svg" xmlns:xlink="http://www.w3.org/1999/xlink" x="0px" y="0px"
	 viewBox="0 0 406.026 406.026" style="enable-background:new 0 0 406.026 406.026;" xml:space="preserve">
<g>
	<g>
		<path d="M404.929,239.015c-0.893-1.525-2.265-2.712-3.903-3.375l-29.12-11.92l30.16-17.76c3.813-2.232,5.095-7.132,2.863-10.945
			c-0.893-1.525-2.265-2.712-3.903-3.375l-29.12-11.92l30.16-17.76c2.634-1.585,4.127-4.539,3.84-7.6
			c-0.231-3.023-2.152-5.657-4.96-6.8l-114.64-46.96l-56.48-24c-0.917-0.363-1.894-0.552-2.88-0.56l-92-37.44
			c-2.259-0.938-4.823-0.79-6.96,0.4l-123.28,69.28c-3.946,1.987-5.534,6.797-3.547,10.743c0.906,1.8,2.459,3.192,4.347,3.897
			l29.76,12.32l-30.56,17.04c-3.845,2.176-5.198,7.058-3.022,10.903c0.865,1.528,2.207,2.728,3.822,3.417l29.76,12.32l-30.4,17.04
			c-4.065,1.732-5.955,6.432-4.223,10.496c0.903,2.119,2.675,3.745,4.863,4.464l29.76,12.24l-30.4,17.04
			c-3.845,2.176-5.198,7.058-3.022,10.903c0.865,1.528,2.207,2.728,3.822,3.417l103.44,43.92c0.378,0.275,0.78,0.516,1.2,0.72
			l56.56,24l104,44.24c2.34,0.993,5.013,0.815,7.2-0.48l124-72.96c3.813-2.232,5.095-7.132,2.863-10.945
			c-0.893-1.525-2.265-2.712-3.903-3.375l-29.12-11.92l30.16-17.76C405.879,247.729,407.16,242.828,404.929,239.015z
			 M379.986,200.201l-106.64,62.8l-95.36-40.48v-26.64l92.8,39.44c0.987,0.42,2.048,0.638,3.12,0.64c1.436,0,2.845-0.387,4.08-1.12
			l76.56-45.04L379.986,200.201z M380.306,156.121l-106.96,62.8l-86.64-36.8l97.6-65.2L380.306,156.121z M105.186,279.561
			l-78.48-33.36l26.96-15.12l51.6,21.92L105.186,279.561z M105.186,235.561l-78.48-33.36l26.96-15.28l51.6,21.92L105.186,235.561z
			 M105.186,191.561l-78.48-33.28l26.96-15.12l51.6,21.92L105.186,191.561z M26.706,114.281l105.76-59.44l76.72,31.44l-96.64,64.48
			L26.706,114.281z M165.506,177.161c-2.205,1.49-3.524,3.979-3.52,6.64v120l-40.72-17.28v-122.32l106-70.64l39.44,16
			L165.506,177.161z M379.986,288.201l-106.64,62.72l-95.36-40.48v-26.56l92.8,39.04c2.34,0.993,5.013,0.815,7.2-0.48l76.56-45.04
			L379.986,288.201z M273.346,306.921l-95.36-40.48v-26.56l92.88,39.44c2.34,0.993,5.013,0.815,7.2-0.48l76.56-45.04l25.36,10.4
			L273.346,306.921z"/>
	</g>
</g>
<g>
</g>
<g>
</g>
<g>
</g>
<g>
</g>
<g>
</g>
<g>
</g>
<g>
</g>
<g>
</g>
<g>
</g>
<g>
</g>
<g>
</g>
<g>
</g>
<g>
</g>
<g>
</g>
<g>
</g>
</svg>
