<svg id="Capa_1" enable-background="new 0 0 512 512" height="512" viewBox="0 0 512 512" width="512" xmlns="http://www.w3.org/2000/svg"><g><path d="m438.558 227.046c4.143 0 7.5-3.357 7.5-7.5v-176.077h6.331c5.535 0 10.038-4.503 10.038-10.038v-23.393c0-5.535-4.503-10.038-10.038-10.038h-315.108c-4.143 0-7.5 3.357-7.5 7.5s3.357 7.5 7.5 7.5h310.146v13.469h-382.854v-13.469h42.721c4.143 0 7.5-3.357 7.5-7.5s-3.357-7.5-7.5-7.5h-47.683c-5.535 0-10.038 4.503-10.038 10.038v23.393c0 5.535 4.503 10.038 10.038 10.038h6.33v233.39h-6.33c-5.535 0-10.038 4.503-10.038 10.038v23.394c0 5.534 4.503 10.037 10.038 10.037h94.027v11.881c0 11.345 9.23 20.575 20.575 20.575h3.702l-24.45 64.882c-1.46 3.876.498 8.202 4.374 9.663 3.876 1.46 8.201-.498 9.663-4.374l26.443-70.171h17.888l-54.338 144.216-17.903.018 16.61-44.077c1.46-3.876-.498-8.202-4.374-9.663-3.877-1.461-8.202.497-9.663 4.374l-16.61 44.077c-1.734 4.603-1.099 9.766 1.7 13.812 2.798 4.045 7.405 6.46 12.324 6.46h17.916c6.202 0 11.838-3.899 14.024-9.702l56.344-149.515h3.626v123.048c0 8.141 6.622 14.763 14.763 14.763h17.593c8.14 0 14.762-6.622 14.762-14.763v-123.049h5.531l56.344 149.515c2.187 5.803 7.822 9.702 14.024 9.702h17.915c4.919 0 9.527-2.415 12.325-6.461 2.799-4.046 3.434-9.209 1.699-13.811l-52.361-138.945h3.702c11.346 0 20.576-9.23 20.576-20.575v-11.881h94.027c5.535 0 10.038-4.503 10.038-10.037v-23.394c0-5.535-4.503-10.038-10.038-10.038h-6.331v-27.325c0-4.143-3.357-7.5-7.5-7.5s-7.5 3.357-7.5 7.5v27.325h-350.117v-233.389h350.117v176.077c0 4.142 3.358 7.5 7.5 7.5zm-174.952 248.548h-17.117v-122.811h17.117zm108.814 21.406h-17.906l-54.348-144.217h17.889zm-29.058-164.792c0 3.074-2.501 5.575-5.576 5.575h-163.573c-3.074 0-5.575-2.501-5.575-5.575v-11.881h174.724zm104.065-40.35v13.469h-382.854v-13.469z"/><path d="m318.43 71.76c0-8.511-6.924-15.435-15.435-15.435h-93.991c-8.511 0-15.435 6.924-15.435 15.435v32.106c0 8.511 6.924 15.435 15.435 15.435h93.991c8.511 0 15.435-6.924 15.435-15.435zm-15 32.106c0 .239-.195.435-.435.435h-93.991c-.239 0-.435-.195-.435-.435v-32.106c0-.239.195-.435.435-.435h93.991c.239 0 .435.195.435.435z"/><path d="m318.43 144.11c0-8.511-6.924-15.435-15.435-15.435h-93.991c-8.511 0-15.435 6.924-15.435 15.435v32.106c0 8.511 6.924 15.435 15.435 15.435h93.991c8.511 0 15.435-6.924 15.435-15.435zm-15 32.107c0 .239-.195.435-.435.435h-93.991c-.239 0-.435-.195-.435-.435v-32.107c0-.239.195-.435.435-.435h93.991c.239 0 .435.195.435.435z"/><path d="m302.996 201.026h-93.991c-8.511 0-15.435 6.924-15.435 15.435v32.106c0 8.511 6.924 15.435 15.435 15.435h93.991c8.511 0 15.435-6.924 15.435-15.435v-32.106c-.001-8.511-6.925-15.435-15.435-15.435zm.434 47.541c0 .239-.195.435-.435.435h-93.991c-.239 0-.435-.195-.435-.435v-32.106c0-.239.195-.435.435-.435h93.991c.239 0 .435.195.435.435z"/><path d="m162.238 251.807c3.19 2.642 7.918 2.197 10.561-.992l11.194-13.517c2.298-2.775 2.298-6.793 0-9.568l-11.194-13.516c-2.644-3.191-7.371-3.633-10.561-.992-3.189 2.643-3.634 7.37-.992 10.561l1.021 1.232h-23.518v-129.702h33.871c4.143 0 7.5-3.357 7.5-7.5s-3.357-7.5-7.5-7.5h-34.936c-7.684 0-13.936 6.251-13.936 13.936v131.829c0 7.685 6.252 13.937 13.936 13.937h24.581l-1.02 1.231c-2.641 3.191-2.197 7.918.993 10.561z"/><path d="m339.38 228.53c-4.143 0-7.5 3.357-7.5 7.5s3.357 7.5 7.5 7.5h34.935c7.685 0 13.937-6.252 13.937-13.937v-131.828c0-7.685-6.252-13.936-13.937-13.936h-24.582l1.02-1.231c2.643-3.189 2.199-7.918-.991-10.56-3.19-2.645-7.919-2.2-10.56.991l-11.195 13.516c-2.299 2.775-2.3 6.793-.001 9.568l11.195 13.517c2.642 3.19 7.369 3.634 10.561.992 3.189-2.643 3.634-7.37.992-10.561l-1.021-1.232h23.518v129.701z"/></g></svg>