<svg height="512" viewBox="0 0 128 128" width="512" xmlns="http://www.w3.org/2000/svg"><path d="m111.344 72.237-16.9-5.87a1.75 1.75 0 0 0 -2.227 1.079l-1.317 3.784-12.123-8.621a6.544 6.544 0 0 0 -3.787-1.2c-9.684.2-10.822-.495-12.609.7-1.481.875-2.3 1.95-4.1 1.95h-11.281a7.174 7.174 0 0 0 -6.157 3.5l-5.824-7.139h60.931a1.75 1.75 0 0 0 1.75-1.75v-4.21a14.572 14.572 0 0 0 -8.656-13.3 8.991 8.991 0 1 0 -11.836-.008 14.419 14.419 0 0 0 -4.743 3.4 14.552 14.552 0 0 0 -4.748-3.4 8.991 8.991 0 1 0 -11.834.006 14.426 14.426 0 0 0 -4.113 2.757 14.415 14.415 0 0 0 -4.115-2.757 8.99 8.99 0 1 0 -11.826 0 14.582 14.582 0 0 0 -8.5 11.357 8.493 8.493 0 0 0 -10.069 13l16.78 21.719a7.242 7.242 0 0 0 5.77 2.836h44.538l-1.5 4.315a1.75 1.75 0 0 0 1.079 2.228l16.9 5.87a1.752 1.752 0 0 0 2.228-1.078l9.369-26.94a1.752 1.752 0 0 0 -1.08-2.228zm-33.704-37.827a5.491 5.491 0 1 1 5.5 5.49h-.011a5.5 5.5 0 0 1 -5.489-5.49zm5.486 8.99h.009a11.077 11.077 0 0 1 11.065 11.06v2.46h-22.13v-2.46a11.066 11.066 0 0 1 11.056-11.06zm-26.82-8.99a5.491 5.491 0 1 1 5.5 5.49h-.01a5.5 5.5 0 0 1 -5.49-5.49zm5.494 8.99a11.039 11.039 0 0 1 8.559 4.083 14.441 14.441 0 0 0 -1.789 6.977v2.46h-12.26v-2.46a14.359 14.359 0 0 0 -2.31-7.846 10.987 10.987 0 0 1 7.794-3.214zm-25.549-8.99a5.491 5.491 0 1 1 5.494 5.49h-.009a5.5 5.5 0 0 1 -5.485-5.49zm5.485 8.99h.009a11.065 11.065 0 0 1 11.065 11.06v2.46h-20.646l-1.484-1.82v-.64a11.073 11.073 0 0 1 11.056-11.06zm-1.926 43.17a3.767 3.767 0 0 1 -3.005-1.47l-16.78-21.719a5 5 0 0 1 7.838-6.2l12 14.707a7.177 7.177 0 0 0 7.137 6.512h17.88a1.75 1.75 0 0 0 0-3.5h-17.88a3.67 3.67 0 1 1 0-7.34h11.28c3.163 0 4.745-1.813 6.052-2.545.3-.2-.095-.067 10.658-.105a3.059 3.059 0 0 1 1.766.556l12.944 9.207-4.138 11.9zm60.512 12.03-13.595-4.719 8.222-23.633 13.593 4.721z"/></svg>